<svg width="194" height="145" viewBox="0 0 194 145" fill="none" xmlns="http://www.w3.org/2000/svg">
<path d="M0 8.73242C8.48327 16.3085 16.9763 23.8723 25.4449 31.4655C40.0034 44.5137 54.5447 57.5765 69.0909 70.6345C69.5935 71.086 70.0717 71.5668 70.6866 72.1526C67.9832 74.586 65.3824 76.9316 62.7766 79.2722C42.0528 97.8707 21.3289 116.469 0.605086 135.065C0.41966 135.231 0.202505 135.358 0 135.504C0 93.2455 0 50.989 0 8.73242Z" fill="url(#paint0_linear_3_4752)"/>
<path d="M6.02856 0.605287C8.73189 -0.268498 184.965 -0.158668 186.981 0.69315C156.854 27.7341 126.797 54.714 96.5582 81.8551C66.402 54.7922 36.3068 27.7805 6.02856 0.605287Z" fill="url(#paint1_linear_3_4752)"/>
<path d="M6.24939 143.418C30.1841 121.935 54.1212 100.451 78.1973 78.8408C80.4225 80.8227 82.6086 82.7655 84.7873 84.7157C87.4077 87.0637 90.0159 89.4263 92.6411 91.7694C95.3444 94.1833 97.755 94.1833 100.48 91.7499C105.26 87.4811 110.025 83.1975 114.897 78.8262C138.917 100.385 162.893 121.905 187.155 143.682C186.138 143.889 185.452 144.087 184.754 144.16C184.008 144.236 183.249 144.201 182.495 144.201C125.186 144.204 67.8793 144.204 10.5703 144.192C9.14791 144.192 7.72793 144.038 6.30552 143.957C6.28844 143.777 6.26891 143.596 6.24939 143.418Z" fill="url(#paint2_linear_3_4752)"/>
<path d="M193.049 8.67871C193.049 51.1305 193.049 93.1161 193.049 135.536C169.405 114.316 146.007 93.3187 122.38 72.1135C145.888 51.0109 169.322 29.9766 193.049 8.67871Z" fill="url(#paint3_linear_3_4752)"/>
<defs>
<linearGradient id="paint0_linear_3_4752" x1="4.86822e-09" y1="72.1184" x2="197.676" y2="72.3006" gradientUnits="userSpaceOnUse">
<stop stop-color="#341E13"/>
<stop offset="0.531216" stop-color="#6A3D27"/>
<stop offset="0.83953" stop-color="#9A5938"/>
</linearGradient>
<linearGradient id="paint1_linear_3_4752" x1="6.02856" y1="40.9275" x2="186.981" y2="40.9275" gradientUnits="userSpaceOnUse">
<stop stop-color="#341E13"/>
<stop offset="0.531216" stop-color="#6A3D27"/>
<stop offset="0.83953" stop-color="#9A5938"/>
</linearGradient>
<linearGradient id="paint2_linear_3_4752" x1="6.24939" y1="111.518" x2="187.155" y2="111.518" gradientUnits="userSpaceOnUse">
<stop stop-color="#341E13"/>
<stop offset="0.531216" stop-color="#6A3D27"/>
<stop offset="0.83953" stop-color="#9A5938"/>
</linearGradient>
<linearGradient id="paint3_linear_3_4752" x1="122.38" y1="72.1074" x2="193.049" y2="72.1074" gradientUnits="userSpaceOnUse">
<stop stop-color="#341E13"/>
<stop stop-color="#6A3D27"/>
<stop offset="0.83953" stop-color="#9A5938"/>
</linearGradient>
</defs>
</svg>
